<?xml version="1.0" encoding="UTF-8"?>
<svg xmlns="http://www.w3.org/2000/svg" width="420mm" height="297mm" viewBox="0 0 420 297">
  <defs>
    <marker id="arrow" markerWidth="6" markerHeight="6" refX="3" refY="3" orient="auto" markerUnits="strokeWidth">
      <path d="M 0 0 L 6 3 L 0 6 z" fill="#263238"/>
    </marker>
    <marker id="flow" markerWidth="7" markerHeight="7" refX="6" refY="3.5" orient="auto" markerUnits="strokeWidth">
      <path d="M 0 0 L 7 3.5 L 0 7 z" fill="#16866f"/>
    </marker>
    <marker id="water" markerWidth="7" markerHeight="7" refX="6" refY="3.5" orient="auto" markerUnits="strokeWidth">
      <path d="M 0 0 L 7 3.5 L 0 7 z" fill="#14758a"/>
    </marker>
    <pattern id="wallHatch" width="4" height="4" patternUnits="userSpaceOnUse" patternTransform="rotate(45)">
      <rect width="4" height="4" fill="#dfe3e6"/>
      <line x1="0" y1="0" x2="0" y2="4" stroke="#9aa4aa" stroke-width="0.35"/>
    </pattern>
    <pattern id="insulation" width="5" height="5" patternUnits="userSpaceOnUse">
      <rect width="5" height="5" fill="#e8ddbd"/>
      <path d="M0 2.5 Q1.25 0 2.5 2.5 T5 2.5" fill="none" stroke="#ae9a64" stroke-width="0.35"/>
    </pattern>
    <style>
      text { font-family: "DejaVu Sans", Arial, sans-serif; fill: #172026; letter-spacing: 0; }
      .title { font-size: 8px; font-weight: 700; }
      .subtitle { font-size: 3.6px; }
      .h2 { font-size: 4.8px; font-weight: 700; }
      .h3 { font-size: 3.7px; font-weight: 700; }
      .body { font-size: 3px; }
      .small { font-size: 2.65px; }
      .tiny { font-size: 2.25px; }
      .heavy { stroke: #172026; stroke-width: 0.8; fill: none; }
      .medium { stroke: #263238; stroke-width: 0.45; fill: none; }
      .thin { stroke: #455a64; stroke-width: 0.25; fill: none; }
      .centerline { stroke: #7a8790; stroke-width: 0.25; stroke-dasharray: 3 1.5; }
      .dim { stroke: #263238; stroke-width: 0.25; marker-start: url(#arrow); marker-end: url(#arrow); }
      .flowline { stroke: #16866f; stroke-width: 0.55; fill: none; marker-end: url(#flow); }
      .waterline { stroke: #14758a; stroke-width: 0.35; fill: none; marker-end: url(#water); }
      .wood { fill: #c58a46; stroke: #6c431d; stroke-width: 0.25; }
      .steam { fill: #fff1df; stroke: #b65a20; stroke-width: 0.45; }
      .wash { fill: #e9f5f7; stroke: #14758a; stroke-width: 0.45; }
      .rest { fill: #eef5e9; stroke: #4f722a; stroke-width: 0.45; }
      .cold { fill: #edf1f3; stroke: #7a8790; stroke-width: 0.25; }
      .note { fill: #eef5e9; stroke: #4f722a; stroke-width: 0.35; }
      .warn { fill: #fff0ec; stroke: #b3261e; stroke-width: 0.45; }
      .unknown { fill: #e9f5f7; stroke: #007f8f; stroke-width: 0.35; }
      .firezone { fill: #f8d9d4; fill-opacity: 0.72; stroke: #b3261e; stroke-width: 0.45; stroke-dasharray: 2 1.3; }
      .support { fill: #f8e8b9; fill-opacity: 0.72; stroke: #9a6b00; stroke-width: 0.5; stroke-dasharray: 3 1.5; }
    </style>
  </defs>

  <rect x="5" y="5" width="410" height="287" fill="#fbfaf6" stroke="#172026" stroke-width="0.8"/>

  <text x="12" y="18" class="title">АР-01-01. Банный блок у газобетонного торца · концепция v01</text>
  <text x="12" y="26" class="subtitle">Парная → помывочная → зимняя зона отдыха. Геометрия учитывает холодный зазор и слои теплой капсулы до чистовых размеров.</text>
  <rect x="309" y="11" width="97" height="18" class="warn"/>
  <text x="313" y="18" class="h3" fill="#8b1d18">СТАТУС: КОНЦЕПЦИЯ</text>
  <text x="313" y="24" class="small">Не для закупки, разметки и монтажа</text>

  <text x="15" y="39" class="h2">1. План банного торца, М 1:35</text>
  <line x1="31" y1="43" x2="63" y2="43" class="flowline"/>
  <text x="66" y="44" class="small">X: к входу и зоне отдыха</text>

  <!-- Existing floor and walls, first 5.6 m from the bath gable -->
  <rect x="15" y="47" width="168.6" height="171.4" fill="#fff" stroke="#172026" stroke-width="0.8"/>
  <rect x="15" y="47" width="8.6" height="171.4" fill="url(#wallHatch)" stroke="#455a64" stroke-width="0.3"/>
  <rect x="23.6" y="47" width="160" height="8.6" fill="url(#wallHatch)" stroke="#455a64" stroke-width="0.25"/>
  <rect x="23.6" y="209.9" width="160" height="8.6" fill="url(#wallHatch)" stroke="#455a64" stroke-width="0.25"/>
  <text x="16.5" y="139" class="small" transform="rotate(-90 16.5 139)">ГАЗОБЕТОН 300 · СНАРУЖИ МЕТАЛЛИЧЕСКИЙ ФАСАД</text>

  <!-- Existing joist grid behind the warm block -->
  <g opacity="0.62" aria-label="Балки Б-01...Б-08, шаг 700 мм">
    <rect x="22.7" y="55.6" width="1.8" height="154.3" class="wood"/>
    <rect x="42.7" y="55.6" width="1.8" height="154.3" class="wood"/>
    <rect x="62.7" y="55.6" width="1.8" height="154.3" class="wood"/>
    <rect x="82.7" y="55.6" width="1.8" height="154.3" class="wood"/>
    <rect x="102.7" y="55.6" width="1.8" height="154.3" class="wood"/>
    <rect x="122.7" y="55.6" width="1.8" height="154.3" class="wood"/>
    <rect x="142.7" y="55.6" width="1.8" height="154.3" class="wood"/>
    <rect x="162.7" y="55.6" width="1.8" height="154.3" class="wood"/>
  </g>
  <text x="25" y="205" class="tiny">Б-01</text>
  <text x="45" y="205" class="tiny">Б-02</text>
  <text x="65" y="205" class="tiny">Б-03</text>
  <text x="85" y="205" class="tiny">Б-04</text>
  <text x="105" y="205" class="tiny">Б-05</text>
  <text x="125" y="205" class="tiny">Б-06</text>
  <text x="145" y="205" class="tiny">Б-07</text>
  <text x="165" y="205" class="tiny">Б-08</text>

  <!-- Cold service strips and warm envelope -->
  <rect x="23.6" y="55.6" width="160" height="37.1" class="cold" opacity="0.78"/>
  <rect x="23.6" y="172.7" width="160" height="37.2" class="cold" opacity="0.78"/>
  <rect x="23.6" y="92.7" width="160" height="80" fill="#f3ead2" stroke="#8d7448" stroke-width="0.5"/>
  <line x1="23.6" y1="132.7" x2="183.6" y2="132.7" class="centerline"/>
  <text x="78" y="74" class="small">ХОЛОДНЫЙ ОБСЛУЖИВАЕМЫЙ ПРОХОД</text>
  <text x="78" y="193" class="small">ХОЛОДНЫЙ ОБСЛУЖИВАЕМЫЙ ПРОХОД</text>
  <text x="150" y="129" class="tiny">ось конька</text>

  <!-- Clean rooms -->
  <rect x="30.6" y="98.4" width="68.6" height="68.6" class="steam"/>
  <rect x="99.1" y="98.4" width="3.5" height="68.6" fill="#d9c9aa" stroke="#6c5b3c" stroke-width="0.35"/>
  <rect x="102.6" y="98.4" width="54.3" height="68.6" class="wash"/>
  <rect x="156.9" y="98.4" width="3.4" height="68.6" fill="#d9c9aa" stroke="#6c5b3c" stroke-width="0.35"/>
  <rect x="160.3" y="98.4" width="23.3" height="68.6" class="rest"/>
  <rect x="23.6" y="92.7" width="7" height="80" fill="url(#insulation)" stroke="#8d7448" stroke-width="0.35"/>

  <!-- Door openings and swings -->
  <rect x="98.8" y="120.5" width="4.1" height="24.2" fill="#fff"/>
  <line x1="102.6" y1="120.7" x2="125.5" y2="120.7" class="medium"/>
  <path d="M102.6 143.6 A22.9 22.9 0 0 1 125.5 120.7" class="thin"/>
  <rect x="156.6" y="120.5" width="4" height="24.2" fill="#fff"/>
  <line x1="160.3" y1="120.7" x2="183.2" y2="120.7" class="medium"/>
  <path d="M160.3 143.6 A22.9 22.9 0 0 1 183.2 120.7" class="thin"/>

  <!-- Functional zones in steam and wash room -->
  <rect x="23.6" y="121.3" width="60" height="48.6" class="support"/>
  <text x="27" y="166.5" class="tiny">под полом: резерв подрамника Б-01…Б-04</text>
  <rect x="40.7" y="142.7" width="17.2" height="14.3" fill="#3f4549" stroke="#172026" stroke-width="0.45"/>
  <text x="44" y="151.2" class="tiny" fill="#fff">ПЕЧЬ*</text>
  <rect x="57.9" y="141.3" width="20" height="17.1" class="firezone"/>
  <text x="60" y="161.3" class="tiny">предтопочная защита*</text>
  <rect x="52.1" y="105.6" width="41.5" height="20" fill="#d6a35e" stroke="#7d5123" stroke-width="0.4"/>
  <line x1="52.1" y1="115.6" x2="93.6" y2="115.6" class="thin"/>
  <text x="64" y="112" class="small">ЗОНА ПОЛКОВ*</text>
  <circle cx="127.5" cy="136" r="3.2" fill="#c6e8ee" stroke="#14758a" stroke-width="0.4"/>
  <rect x="104.2" y="100" width="51.2" height="65.4" fill="none" stroke="#14758a" stroke-width="0.3" stroke-dasharray="2 1"/>
  <line x1="116" y1="136" x2="122.5" y2="136" class="waterline"/>
  <line x1="139" y1="136" x2="132.5" y2="136" class="waterline"/>
  <text x="118" y="143" class="tiny">трап / уклоны*</text>
  <rect x="108" y="103.5" width="14" height="18" rx="1" fill="#d6eef2" stroke="#14758a" stroke-width="0.35"/>
  <text x="110" y="114" class="tiny">душ*</text>
  <rect x="139" y="145" width="13" height="17" rx="1" fill="#d6eef2" stroke="#14758a" stroke-width="0.35"/>
  <text x="141" y="155" class="tiny">лавка*</text>
  <text x="105" y="163.5" class="tiny" fill="#0e6070">гидроизоляция + уклоны 1,5–2%*</text>
  <text x="154" y="148" class="tiny" fill="#0e6070">порог*</text>

  <!-- Chimney and ventilation concepts -->
  <line x1="49" y1="149.8" x2="10" y2="149.8" stroke="#b3261e" stroke-width="0.7" stroke-dasharray="3 1.5"/>
  <circle cx="22.5" cy="149.8" r="2.8" fill="#fff" stroke="#b3261e" stroke-width="0.6"/>
  <text x="25" y="147.2" class="tiny" fill="#8b1d18">проход стены: только штатный узел выбранного дымохода</text>
  <path d="M10 162 C20 162 31 160 40 156" class="flowline"/>
  <text x="25" y="175.8" class="tiny" fill="#126b59">приток низко у печи*</text>
  <path d="M90 105 C86 96 81 91 74 87" class="flowline"/>
  <text x="43" y="84" class="tiny" fill="#126b59">вытяжка наружу, не в чердак*</text>

  <!-- Room labels -->
  <text x="50" y="133" class="h3">ПАРНАЯ</text>
  <text x="48" y="138" class="small">чисто 2400 × 2400</text>
  <text x="117" y="130" class="h3">ПОМЫВОЧНАЯ</text>
  <text x="115" y="135" class="small">чисто 1900 × 2400</text>
  <text x="162" y="151" class="h3">ДАЛЕЕ</text>
  <text x="162" y="156" class="small">зимняя зона</text>
  <text x="162" y="161" class="small">отдыха</text>

  <!-- Plan dimensions -->
  <line x1="10" y1="47" x2="10" y2="218.4" class="dim"/>
  <line x1="11.5" y1="47" x2="14" y2="47" class="thin"/>
  <line x1="11.5" y1="218.4" x2="14" y2="218.4" class="thin"/>
  <text x="7.3" y="139" class="small" transform="rotate(-90 7.3 139)">6000 существующий объем</text>
  <line x1="186.5" y1="98.4" x2="186.5" y2="167" class="dim"/>
  <text x="189" y="139" class="small" transform="rotate(-90 189 139)">2400 чисто</text>

  <line x1="30.6" y1="225" x2="99.1" y2="225" class="dim"/>
  <line x1="30.6" y1="218.5" x2="30.6" y2="223.5" class="thin"/>
  <line x1="99.1" y1="218.5" x2="99.1" y2="223.5" class="thin"/>
  <text x="62" y="223.7" class="small">2400 чисто</text>
  <line x1="102.6" y1="225" x2="156.9" y2="225" class="dim"/>
  <line x1="102.6" y1="218.5" x2="102.6" y2="223.5" class="thin"/>
  <line x1="156.9" y1="218.5" x2="156.9" y2="223.5" class="thin"/>
  <text x="126" y="223.7" class="small">1900 чисто</text>
  <text x="96" y="231" class="tiny">перегородка 120*</text>
  <text x="153.7" y="231" class="tiny">120*</text>
  <line x1="23.6" y1="236" x2="160.3" y2="236" class="dim"/>
  <text x="67" y="234.7" class="small">≈4785 до зоны отдыха, включая резерв торца D</text>
  <text x="15" y="243" class="small">* Положение оборудования, дверей, трапа, полков и вентиляции — стартовая компоновка, не монтажная привязка.</text>

  <!-- Cross section -->
  <text x="194" y="39" class="h2">2. Поперечный разрез парной/помывочной, М 1:50</text>
  <rect x="192" y="45" width="116" height="119" fill="#fff" stroke="#455a64" stroke-width="0.35"/>
  <line x1="194" y1="140" x2="306" y2="140" class="heavy"/>
  <path d="M190 140 L250 80 L310 140" class="heavy"/>
  <rect x="190" y="134" width="6" height="6" fill="url(#wallHatch)" stroke="#455a64" stroke-width="0.25"/>
  <rect x="304" y="134" width="6" height="6" fill="url(#wallHatch)" stroke="#455a64" stroke-width="0.25"/>
  <text x="198" y="61" class="small">существующая холодная кровля</text>
  <text x="198" y="66" class="tiny">без утепления в стропилах</text>
  <line x1="250" y1="77" x2="250" y2="142" class="centerline"/>
  <text x="253" y="84" class="tiny">90°</text>

  <!-- Capsule build-up and clean volume -->
  <path d="M221.1 140 L221.1 106.1 L237 90.2 L263 90.2 L278.9 106.1 L278.9 140 Z" fill="url(#insulation)" stroke="#8d7448" stroke-width="0.5"/>
  <path d="M226 140 L226 110.9 L238.9 98 L261.1 98 L274 110.9 L274 140 Z" fill="#fff5e8" stroke="#b65a20" stroke-width="0.65"/>
  <line x1="221.1" y1="106.1" x2="237" y2="90.2" stroke="#007f8f" stroke-width="0.35" stroke-dasharray="2 1"/>
  <line x1="263" y1="90.2" x2="278.9" y2="106.1" stroke="#007f8f" stroke-width="0.35" stroke-dasharray="2 1"/>
  <text x="233" y="124" class="h3">ТЁПЛЫЙ БЛОК</text>
  <text x="235" y="129" class="small">чистый проход</text>
  <text x="194" y="128" class="tiny">холодная</text>
  <text x="194" y="132" class="tiny">сервисная</text>
  <text x="194" y="136" class="tiny">полоса</text>
  <text x="285" y="128" class="tiny">холодная</text>
  <text x="285" y="132" class="tiny">сервисная</text>
  <text x="285" y="136" class="tiny">полоса</text>

  <!-- Normal reserve indicator -->
  <line x1="221.8" y1="101.8" x2="226.7" y2="106.7" class="dim"/>
  <text x="193.5" y="95" class="small">D = 245 по нормали*</text>
  <text x="193.5" y="100" class="tiny">50 холодный зазор</text>
  <text x="193.5" y="104" class="tiny">150 каркас/утеплитель</text>
  <text x="193.5" y="108" class="tiny">30 рейка + 15 вагонка</text>

  <!-- Section dimensions -->
  <line x1="226" y1="149" x2="274" y2="149" class="dim"/>
  <line x1="226" y1="141.5" x2="226" y2="147.5" class="thin"/>
  <line x1="274" y1="141.5" x2="274" y2="147.5" class="thin"/>
  <text x="242" y="147.7" class="small">2400 чисто</text>
  <line x1="281" y1="140" x2="281" y2="98" class="dim"/>
  <text x="284" y="123" class="small" transform="rotate(-90 284 123)">2100 чистая высота</text>
  <line x1="313" y1="140" x2="313" y2="80" class="dim"/>
  <text x="316" y="116" class="small" transform="rotate(-90 316 116)">3000 существующая</text>
  <text x="230" y="155" class="small">у края ≈1450</text>
  <path d="M238.9 98 L250 86.9 L261.1 98" stroke="#b65a20" stroke-width="0.3" stroke-dasharray="1.5 1" fill="none"/>
  <text x="252" y="92" class="tiny">внутр. конек ≈2650 до отсечения</text>
  <text x="259" y="155" class="small">на H=2100: ≈1110 при F=0</text>
  <text x="195" y="160" class="tiny">* Подъем пола F уменьшает ширину до ≈1110 − 2F. D — геометрический резерв, не спецификация утепления.</text>

  <!-- Stove support detail -->
  <text x="194" y="173" class="h2">3. Зона печи: опора ≠ пожарная защита</text>
  <rect x="192" y="178" width="116" height="77" fill="#fff" stroke="#455a64" stroke-width="0.35"/>
  <text x="195" y="184" class="h3">План под полом, условно М 1:35</text>
  <rect x="195" y="188" width="60" height="48.6" class="support"/>
  <line x1="195" y1="188" x2="195" y2="236.6" stroke="#6c431d" stroke-width="2"/>
  <line x1="215" y1="188" x2="215" y2="236.6" stroke="#6c431d" stroke-width="2"/>
  <line x1="235" y1="188" x2="235" y2="236.6" stroke="#6c431d" stroke-width="2"/>
  <line x1="255" y1="188" x2="255" y2="236.6" stroke="#6c431d" stroke-width="2"/>
  <rect x="204" y="194" width="42" height="5" class="wood"/>
  <rect x="204" y="225" width="42" height="5" class="wood"/>
  <rect x="212" y="205" width="17" height="14" fill="#3f4549" stroke="#172026" stroke-width="0.45"/>
  <rect x="229" y="203.5" width="20" height="17" class="firezone"/>
  <text x="198" y="242" class="tiny">Б-01</text>
  <text x="212" y="242" class="tiny">Б-02</text>
  <text x="232" y="242" class="tiny">Б-03</text>
  <text x="250" y="242" class="tiny">Б-04</text>
  <text x="197" y="248" class="small">0…2100: только резерв для решения конструктора</text>

  <text x="262" y="184" class="h3">Разрез сверху вниз</text>
  <rect x="262" y="188" width="5" height="48" fill="url(#wallHatch)" stroke="#455a64" stroke-width="0.3"/>
  <rect x="273" y="188" width="19" height="18" rx="1" fill="#3f4549" stroke="#172026" stroke-width="0.45"/>
  <text x="277" y="198" class="tiny" fill="#fff">печь*</text>
  <rect x="270" y="207" width="25" height="3" fill="#cfd5d9" stroke="#667078" stroke-width="0.3"/>
  <rect x="268" y="210" width="29" height="4" fill="#eadfcf" stroke="#8d4d22" stroke-width="0.3"/>
  <rect x="266" y="214" width="33" height="4" fill="#e0b66e" stroke="#8c5b2b" stroke-width="0.3"/>
  <rect x="266" y="218" width="33" height="4" fill="#e0b66e" stroke="#8c5b2b" stroke-width="0.3"/>
  <rect x="268" y="222" width="5" height="19" class="wood"/>
  <rect x="292" y="222" width="5" height="19" class="wood"/>
  <line x1="292" y1="195" x2="306" y2="195" class="dim"/>
  <text x="298" y="192.8" class="tiny">P1*</text>
  <line x1="274" y1="196" x2="258" y2="196" stroke="#b3261e" stroke-width="0.65" stroke-dasharray="2 1"/>
  <text x="258" y="244" class="tiny">настил несет; негорючая система защищает;</text>
  <text x="258" y="249" class="tiny">размеры P1…Pn — только по паспорту печи</text>

  <!-- Notes column -->
  <rect x="318" y="38" width="88" height="47" class="note"/>
  <text x="322" y="46" class="h2">Принято на v01</text>
  <text x="322" y="54" class="body">• парная у X=0, затем помывочная;</text>
  <text x="322" y="60" class="body">• чистая ширина обоих помещений 2400;</text>
  <text x="322" y="66" class="body">• парная 2400, помывочная 1900;</text>
  <text x="322" y="72" class="body">• центральный плоский потолок 2100;</text>
  <text x="322" y="78" class="body">• по бокам остаются холодные проходы.</text>

  <rect x="318" y="90" width="88" height="59" class="unknown"/>
  <text x="322" y="98" class="h2">Параметры до следующей ревизии</text>
  <text x="322" y="106" class="body">P — модель, масса, габарит и отступы печи.</text>
  <text x="322" y="113" class="body">CH — диаметр и единая система дымохода.</text>
  <text x="322" y="120" class="body">G — пирог газобетонного торца и фасада.</text>
  <text x="322" y="127" class="body">T — утепление после теплового расчета.</text>
  <text x="322" y="134" class="body">F — отметка и несущая схема нового пола.</text>
  <text x="322" y="141" class="body">V/D — вентиляция и фактическая точка слива.</text>

  <rect x="318" y="154" width="88" height="47" class="warn"/>
  <text x="322" y="162" class="h2" fill="#8b1d18">До рабочего узла нельзя</text>
  <text x="322" y="170" class="body">• резать/дублировать балки и связи кровли;</text>
  <text x="322" y="176" class="body">• покупать печь, дымоход и утеплитель;</text>
  <text x="322" y="182" class="body">• вести одностенную трубу через стену;</text>
  <text x="322" y="188" class="body">• выпускать влажный воздух в чердак;</text>
  <text x="322" y="194" class="body">• считать перемычки расчетом перекрытия.</text>

  <rect x="318" y="206" width="88" height="29" fill="#fff8dc" stroke="#9a6b00" stroke-width="0.4"/>
  <text x="322" y="214" class="h3">Отложенный контроль</text>
  <text x="322" y="221" class="body">Перед листом входа напомнить и обмерить</text>
  <text x="322" y="227" class="body">проем/ригели между Б-16 и Б-18.</text>
  <text x="322" y="232" class="tiny">Сейчас банный торец это не блокирует.</text>

  <rect x="318" y="240" width="88" height="27" fill="#fff" stroke="#455a64" stroke-width="0.35"/>
  <text x="322" y="248" class="h3">Основание решения</text>
  <text x="322" y="255" class="small">МЧС: печь, лист 500×700 минимум, разделки.</text>
  <text x="322" y="260" class="small">Kingspan: фольга/герметизация/зазор.</text>
  <text x="322" y="265" class="tiny">Подробно: planning/bath_block_concept_v01.md</text>

  <!-- Title block -->
  <rect x="5" y="274" width="410" height="18" fill="#fff" stroke="#172026" stroke-width="0.5"/>
  <line x1="104" y1="274" x2="104" y2="292" class="medium"/>
  <line x1="274" y1="274" x2="274" y2="292" class="medium"/>
  <line x1="358" y1="274" x2="358" y2="292" class="medium"/>
  <text x="10" y="281" class="h3">Баня на чердаке мастерской</text>
  <text x="10" y="288" class="small">Банный торец · концепция v01</text>
  <text x="109" y="281" class="h3">План, поперечный разрез и зона печи</text>
  <text x="109" y="288" class="small">Статус: для согласования геометрии / требуется конструктор и печник</text>
  <text x="279" y="281" class="small">Масштабы: 1:35 / 1:50 при печати A3</text>
  <text x="279" y="288" class="small">Единицы: мм · Дата: 2026-07-12</text>
  <text x="363" y="285" class="h2">АР-01-01 · v01</text>
</svg>
