<svg xmlns="http://www.w3.org/2000/svg" width="1800" height="1200" viewBox="0 0 1800 1200">
  <defs>
    <marker id="arrow" markerWidth="10" markerHeight="10" refX="8" refY="3" orient="auto" markerUnits="strokeWidth">
      <path d="M0,0 L0,6 L9,3 z" fill="#202020"/>
    </marker>
    <pattern id="ply" patternUnits="userSpaceOnUse" width="28" height="18">
      <rect width="28" height="18" fill="#e8c78f"/>
      <path d="M0 9 H28" stroke="#cf9e58" stroke-width="1"/>
    </pattern>
    <pattern id="joist" patternUnits="userSpaceOnUse" width="18" height="18">
      <rect width="18" height="18" fill="#c99252"/>
      <path d="M0 0 L18 18 M18 0 L0 18" stroke="#8f5c28" stroke-width="1"/>
    </pattern>
    <style>
      .sheet { fill: #f7f4ec; }
      .border { fill: none; stroke: #202020; stroke-width: 3; }
      .title { font-family: Arial, sans-serif; font-size: 36px; font-weight: 700; fill: #202020; }
      .note { font-family: Arial, sans-serif; font-size: 26px; fill: #202020; }
      .small { font-family: Arial, sans-serif; font-size: 22px; fill: #202020; }
      .tiny { font-family: Arial, sans-serif; font-size: 18px; fill: #202020; }
      .outer { fill: #fffdf7; stroke: #202020; stroke-width: 5; }
      .zone-steam { fill: #f4d5cf; stroke: #8d312a; stroke-width: 3; }
      .zone-wash { fill: #d8edf3; stroke: #236b7a; stroke-width: 3; }
      .zone-rest { fill: #e5f0dc; stroke: #4d6b34; stroke-width: 3; }
      .deck { fill: url(#ply); stroke: #a66b2a; stroke-width: 3; opacity: .9; }
      .beam { fill: url(#joist); stroke: #6f421c; stroke-width: 2; }
      .blocking { fill: #b87435; stroke: #6f421c; stroke-width: 2; }
      .wet { fill: rgba(70,160,185,.25); stroke: #236b7a; stroke-width: 4; stroke-dasharray: 10 7; }
      .stove { fill: #ddd4c5; stroke: #6d4c2e; stroke-width: 4; }
      .hatch { fill: #d5c0a4; stroke: #6d4c2e; stroke-width: 4; }
      .dim { stroke: #202020; stroke-width: 2; marker-end: url(#arrow); marker-start: url(#arrow); }
      .thin { stroke: #202020; stroke-width: 2; fill: none; }
      .axis { stroke: #777; stroke-width: 2; stroke-dasharray: 10 8; }
      .warn { fill: #fff1f0; stroke: #b42318; stroke-width: 3; }
      .layer1 { fill: #c99252; stroke: #6f421c; stroke-width: 2; }
      .layer2 { fill: #d8b176; stroke: #6f421c; stroke-width: 2; }
      .layer3 { fill: #e8c78f; stroke: #6f421c; stroke-width: 2; }
      .layer4 { fill: #7ec4d3; stroke: #236b7a; stroke-width: 2; }
      .layer5 { fill: #dfe8c9; stroke: #4d6b34; stroke-width: 2; }
      .labelbox { fill: #fffdf7; stroke: #202020; stroke-width: 1.5; opacity: .94; }
    </style>
  </defs>

  <rect class="sheet" width="1800" height="1200"/>
  <rect class="border" x="40" y="40" width="1720" height="1120"/>
  <text class="title" x="80" y="95">Этап 1. Пол: балки, перемычки, силовой настил</text>
  <text class="small" x="80" y="130">Статус: схема для обсуждения. Размеры в мм. Нужна проверка состояния балок и расчет нагрузок.</text>

  <!-- main top plan -->
  <text class="note" x="95" y="190">Вид сверху. Сначала готовим жесткую основу, потом ставим стены</text>
  <rect class="outer" x="95" y="220" width="960" height="480"/>
  <rect class="zone-steam" x="95" y="220" width="192" height="480"/>
  <rect class="zone-wash" x="287" y="220" width="152" height="480"/>
  <rect class="zone-rest" x="439" y="220" width="616" height="480"/>

  <!-- joists, 100 wide at 550 pitch, scaled 0.08 px/mm -->
  <rect class="beam" x="95" y="220" width="8" height="480"/>
  <rect class="beam" x="139" y="220" width="8" height="480"/>
  <rect class="beam" x="183" y="220" width="8" height="480"/>
  <rect class="beam" x="227" y="220" width="8" height="480"/>
  <rect class="beam" x="271" y="220" width="8" height="480"/>
  <rect class="beam" x="315" y="220" width="8" height="480"/>
  <rect class="beam" x="359" y="220" width="8" height="480"/>
  <rect class="beam" x="403" y="220" width="8" height="480"/>
  <rect class="beam" x="447" y="220" width="8" height="480"/>
  <rect class="beam" x="491" y="220" width="8" height="480"/>
  <rect class="beam" x="535" y="220" width="8" height="480"/>
  <rect class="beam" x="579" y="220" width="8" height="480"/>
  <rect class="beam" x="623" y="220" width="8" height="480"/>
  <rect class="beam" x="667" y="220" width="8" height="480"/>
  <rect class="beam" x="711" y="220" width="8" height="480"/>
  <rect class="beam" x="755" y="220" width="8" height="480"/>
  <rect class="beam" x="799" y="220" width="8" height="480"/>
  <rect class="beam" x="843" y="220" width="8" height="480"/>
  <rect class="beam" x="887" y="220" width="8" height="480"/>
  <rect class="beam" x="931" y="220" width="8" height="480"/>
  <rect class="beam" x="975" y="220" width="8" height="480"/>
  <rect class="beam" x="1019" y="220" width="8" height="480"/>

  <!-- blocking in sauna/wash block and hatch frame -->
  <rect class="blocking" x="110" y="295" width="310" height="12"/>
  <rect class="blocking" x="110" y="425" width="310" height="12"/>
  <rect class="blocking" x="110" y="555" width="310" height="12"/>
  <rect class="blocking" x="290" y="230" width="12" height="460"/>
  <rect class="blocking" x="430" y="230" width="12" height="460"/>

  <rect class="wet" x="300" y="290" width="120" height="300"/>
  <rect class="labelbox" x="305" y="315" width="104" height="78"/>
  <text class="tiny" x="312" y="338">мокрая зона</text>
  <text class="tiny" x="312" y="362">гидроизоляция</text>
  <text class="tiny" x="312" y="386">легкий поддон</text>

  <rect class="stove" x="150" y="470" width="92" height="80"/>
  <rect class="labelbox" x="118" y="558" width="146" height="54"/>
  <text class="tiny" x="128" y="580">площадка печи</text>
  <text class="tiny" x="128" y="602">на 3-4 балки</text>

  <rect class="hatch" x="875" y="585" width="145" height="74"/>
  <rect class="blocking" x="860" y="570" width="12" height="110"/>
  <rect class="blocking" x="1025" y="570" width="12" height="110"/>
  <rect class="blocking" x="860" y="565" width="180" height="10"/>
  <rect class="blocking" x="860" y="675" width="180" height="10"/>
  <text class="tiny" x="845" y="555">люк у правого ската</text>

  <text class="small" x="125" y="465">парная</text>
  <text class="small" x="300" y="465">помывочная</text>
  <text class="small" x="600" y="465">зона отдыха / вход</text>
  <text class="tiny" x="115" y="690">первую балку у торцевой стены сохраняем как исходный ориентир</text>

  <line class="dim" x1="95" y1="755" x2="1055" y2="755"/>
  <text class="small" x="545" y="790">12 000</text>
  <line class="dim" x1="60" y1="220" x2="60" y2="700"/>
  <text class="small" x="25" y="475" transform="rotate(-90 25 475)">6 000</text>
  <line class="dim" x1="95" y1="820" x2="287" y2="820"/>
  <line class="dim" x1="287" y1="820" x2="439" y2="820"/>
  <line class="dim" x1="439" y1="820" x2="1055" y2="820"/>
  <text class="tiny" x="155" y="850">парная ~2400</text>
  <text class="tiny" x="310" y="850">помывочная ~1900</text>
  <text class="tiny" x="670" y="850">отдых ~7700</text>

  <!-- right notes -->
  <rect class="warn" x="1125" y="220" width="570" height="190"/>
  <text class="note" x="1145" y="258">Критично перед сборкой</text>
  <text class="small" x="1145" y="296">1. Осмотреть балки, опирание, трещины, гниль.</text>
  <text class="small" x="1145" y="330">2. Печь и мокрая зона не должны давить точечно.</text>
  <text class="small" x="1145" y="364">3. Тяжелую стяжку здесь не принимаем.</text>
  <text class="small" x="1145" y="398">4. Финальные нагрузки проверить отдельно.</text>

  <text class="note" x="1125" y="470">Материалы предварительно</text>
  <text class="small" x="1125" y="510">- существующие балки 100 x 200, шаг: 100 + 450 прогал;</text>
  <text class="small" x="1125" y="545">- перемычки/блокинг между балками в зоне бани;</text>
  <text class="small" x="1125" y="580">- сплошной силовой настил: фанера ФСФ 21 или OSB-3/4 22;</text>
  <text class="small" x="1125" y="615">- лучше 2 слоя с разбежкой швов в мокрой/печной зоне;</text>
  <text class="small" x="1125" y="650">- помывочная: гидроизоляция + легкий поддон/трап;</text>
  <text class="small" x="1125" y="685">- печь: негорючая плита по распределяющему основанию.</text>

  <!-- section -->
  <text class="note" x="95" y="925">Срез пола. Принцип слоев в мокрой зоне</text>
  <rect class="layer1" x="95" y="1000" width="600" height="70"/>
  <rect class="layer2" x="95" y="955" width="600" height="45"/>
  <rect class="layer3" x="95" y="918" width="600" height="37"/>
  <rect class="layer4" x="95" y="900" width="600" height="18"/>
  <rect class="layer5" x="95" y="875" width="600" height="25"/>
  <text class="tiny" x="720" y="887">финиш/поддон или съемный настил</text>
  <text class="tiny" x="720" y="910">гидроизоляция с заходом на стены</text>
  <text class="tiny" x="720" y="943">2-й слой листового настила, швы вразбежку</text>
  <text class="tiny" x="720" y="983">1-й слой силового настила</text>
  <text class="tiny" x="720" y="1045">балки 100 x 200, прогал 450</text>
  <line class="thin" x1="695" y1="887" x2="95" y2="887"/>
  <line class="thin" x1="695" y1="910" x2="95" y2="910"/>
  <line class="thin" x1="695" y1="943" x2="95" y2="943"/>
  <line class="thin" x1="695" y1="983" x2="95" y2="983"/>
  <line class="thin" x1="695" y1="1045" x2="95" y2="1045"/>

  <rect class="thin" x="1220" y="1030" width="485" height="75"/>
  <text class="tiny" x="1240" y="1058">Лист: floor_stage_01_frame_and_deck_v01</text>
  <text class="tiny" x="1240" y="1086">Масштаб условный. Единицы: мм. Дата: 2026-07-04</text>
</svg>
